<svg width="35" height="35" viewBox="0 0 35 35" fill="none" xmlns="http://www.w3.org/2000/svg">
<g id="&#232;&#156;&#156;&#232;&#156;&#130; 2">
<path id="Vector" opacity="0.5" d="M19.0625 18.6854C12.5366 17.1192 5.74136 20.1568 4.54199 24.5516C4.85269 25.7397 5.57627 26.9712 6.8023 28.1972C12.7055 34.1004 18.7354 28.3664 19.4208 20.8906C19.3565 20.1578 19.2389 19.4199 19.0625 18.6854Z" fill="#FFE145"/>
<path id="Vector_2" opacity="0.5" d="M17.8179 11.8665C18.3019 13.1216 18.7229 14.4864 19.0695 15.9305C21.4655 16.5054 23.6493 17.2823 25.4611 18.2188C25.7493 17.6856 25.9564 17.1199 26.0822 16.5402C25.8262 15.3952 25.2533 14.3069 24.3623 13.4159C22.5917 11.6457 20.0433 11.1306 17.8179 11.8665Z" fill="#FFE145"/>
<path id="Vector_3" d="M11.8149 31.433C11.4403 31.433 11.0643 31.3982 10.69 31.3277C9.15194 31.0386 7.65487 30.1749 6.24018 28.7602C4.82548 27.3455 3.96176 25.8484 3.6726 24.3103C3.4036 22.8789 3.65277 21.4235 4.39276 20.1014C4.87265 19.2442 5.54394 18.4543 6.39228 17.7482C6.22992 17.4491 6.07611 17.1497 5.93085 16.8509C4.62074 14.1521 4.06737 11.5965 4.33022 9.45958C4.45907 8.41402 4.78241 7.46929 5.29169 6.65103C5.83275 5.78218 6.58437 5.05518 7.52533 4.49053C8.39213 3.97066 9.27431 3.66646 10.1473 3.58682C10.999 3.50889 11.8446 3.64356 12.6612 3.98604C15.6632 5.24625 18.2253 9.34713 19.7265 15.2725C25.6522 16.7737 29.7531 19.3358 31.0129 22.3378C31.3558 23.1544 31.4901 24.0003 31.4121 24.8517C31.3325 25.7247 31.0283 26.6068 30.5084 27.4736C29.9438 28.4146 29.2168 29.1662 28.3479 29.7073C27.53 30.2166 26.585 30.5402 25.5394 30.6688C25.1932 30.7115 24.836 30.7327 24.4689 30.7327C22.5705 30.7327 20.4097 30.1663 18.148 29.0681C17.8493 28.9232 17.5502 28.7691 17.2508 28.6067C16.5443 29.455 15.7548 30.1263 14.8975 30.6062C13.9224 31.1541 12.8734 31.433 11.8149 31.433ZM7.21225 19.1451C6.61342 19.6766 6.12773 20.261 5.78148 20.879C5.21786 21.8853 5.03466 22.9411 5.23666 24.0164C5.46532 25.2335 6.18173 26.451 7.36537 27.6346C8.54936 28.8186 9.76649 29.5347 10.9836 29.7633C12.0589 29.9653 13.1144 29.7821 14.121 29.2185C14.739 28.8723 15.3238 28.3869 15.8549 27.7878C14.1558 26.7159 12.5039 25.3989 11.0523 23.9473C9.60106 22.4961 8.28412 20.8441 7.21225 19.1451ZM18.186 27.3031C18.4034 27.4185 18.6229 27.53 18.8443 27.6377C21.2663 28.8135 23.5146 29.3159 25.3459 29.0903C27.0211 28.8842 28.2991 28.0649 29.1447 26.6557C29.9188 25.3654 30.0504 24.1548 29.5463 22.9544C28.5469 20.5734 25.0527 18.3928 20.0932 17.0167C20.4852 19.559 20.2631 22.2103 19.4434 24.6063C19.1088 25.5849 18.6874 26.4879 18.186 27.3031ZM8.49433 18.1952C9.51356 19.829 10.7786 21.4228 12.1779 22.8225C13.5772 24.2218 15.171 25.4871 16.8051 26.506C17.2525 25.7855 17.6364 24.972 17.9378 24.0912C18.7465 21.7274 18.9079 19.0853 18.4027 16.5977C15.9151 16.0925 13.273 16.2538 10.9091 17.0625C10.0283 17.3636 9.21483 17.7478 8.49433 18.1952ZM10.6121 5.15464C9.87519 5.15464 9.1246 5.38775 8.34462 5.85567C6.93539 6.70128 6.1161 7.97925 5.91 9.6544C5.68441 11.4857 6.18686 13.7341 7.36264 16.1561C7.46894 16.3752 7.5807 16.5946 7.69726 16.8144C8.51244 16.3129 9.41547 15.8915 10.394 15.5569C12.79 14.7373 15.441 14.5151 17.9836 14.9071C16.6076 9.948 14.4269 6.45381 12.0459 5.45406C11.5712 5.25445 11.0947 5.15464 10.6121 5.15464Z" fill="#3F2704"/>
<path id="Vector_4" d="M25.4604 19.0148C25.3373 19.0148 25.2122 18.9861 25.0953 18.9256C23.3457 18.0209 21.2556 17.2734 18.8835 16.704C18.7408 16.6697 18.6103 16.5966 18.5066 16.4928C18.4028 16.389 18.3298 16.2585 18.2956 16.1157C17.7262 13.7437 16.979 11.6539 16.074 9.90391C15.8747 9.5187 16.0206 9.04463 16.4024 8.83853C17.7385 8.11665 19.3063 7.83398 20.8174 8.04316C22.3805 8.25952 23.7979 8.96465 24.9162 10.0833C26.0346 11.2021 26.7401 12.6191 26.9564 14.1822C27.1653 15.6933 26.8829 17.2611 26.1611 18.5972C26.0172 18.8631 25.7434 19.0148 25.4604 19.0148ZM19.7267 15.2732C21.7092 15.7756 23.5033 16.4028 25.0772 17.1428C25.4002 16.2743 25.5079 15.3241 25.3801 14.4006C25.2119 13.1838 24.6623 12.0801 23.791 11.2089C22.9198 10.3376 21.8161 9.78804 20.5993 9.61987C19.6758 9.49204 18.7256 9.59971 17.8571 9.9227C18.5974 11.4967 19.2243 13.2908 19.7267 15.2732ZM23.7695 7.40503C23.5316 7.40503 23.2937 7.31445 23.1126 7.1333C22.9369 6.95762 22.8405 6.72451 22.8405 6.47637C22.8405 6.22822 22.9372 5.99478 23.1126 5.81943C23.2879 5.64409 23.5214 5.54736 23.7695 5.54736C24.0177 5.54736 24.2511 5.64409 24.4268 5.81943C24.7888 6.1814 24.7891 6.771 24.4268 7.1333L24.4264 7.13364C24.2453 7.31445 24.0074 7.40503 23.7695 7.40503ZM28.1794 11.8149C27.9415 11.8149 27.7036 11.7243 27.5224 11.5432C27.3471 11.3678 27.2504 11.1344 27.2504 10.8862C27.2504 10.6381 27.3471 10.4046 27.5224 10.2293C27.8847 9.86699 28.474 9.86733 28.8363 10.2293C29.1986 10.5916 29.1986 11.1812 28.8363 11.5435C28.6552 11.7243 28.4173 11.8149 28.1794 11.8149Z" fill="#3F2704"/>
</g>
</svg>
