<svg width="29" height="29" viewBox="0 0 29 29" fill="none" xmlns="http://www.w3.org/2000/svg">
<g id="&#232;&#138;&#177; (13) 1" clip-path="url(#clip0_37_9)">
<path id="Vector 9" opacity="0.5" d="M15.5 16.5C12.9999 10.5001 17.0001 3.5 21.4998 2.50001C23.9888 1.94687 22.2006 2.29938 23.0003 3.49969C23.9999 4.99999 24.9999 7.99999 23.4999 11.5C21.9999 15 20.4999 15.5 17.4999 16.5C16.4392 16.8535 16.5 18 15.5 16.5Z" fill="white"/>
<path id="Vector" d="M14.8453 18.4932H14.8254C10.1299 18.4252 6.3605 16.5023 4.48003 13.2171C2.62788 9.97442 2.92808 5.55928 5.28999 1.40186C5.51089 1.01671 5.93853 0.781648 6.36899 0.78448C9.70229 0.832624 12.5 1.55848 14.5 3.5C14.9843 3.97012 14.9729 4.51572 14.5 5C14.3778 5.12512 14 5 13.5 4.5C12 3.5 10.5 2.5 6.5 2.5C3.98003 6 4.66895 10.1749 6 12.5C7.4415 15.0177 10.6909 16.9462 14.5 17C15.174 17.0085 15.0085 16.826 15 17.5C14.9943 18.1712 15.5108 18.4932 14.8453 18.4932Z" fill="#3F2704"/>
<path id="Vector_2" d="M15.0635 18.4507C14.684 18.4507 14.3243 18.2751 14.0921 17.9692C11.2884 14.2791 10.5662 10.2576 12.0558 6.64961C13.5342 3.07275 17.0515 0.654199 21.7046 0.0141599C22.1435 -0.0538088 22.5768 0.133105 22.8431 0.484277C25.6864 4.22539 26.4681 8.41963 24.9897 11.9937C23.5681 15.4289 20.011 17.7795 15.2277 18.4394C15.1767 18.445 15.1201 18.4507 15.0635 18.4507ZM13.5 7.5C12.4267 10.0941 13 14 15.2277 16.7474C18.5 16 22.0523 14.5 23.5 11C24.5648 8.42568 24 5 21.7046 1.73261C18 2 14.7413 4.5 13.5 7.5Z" fill="#3F2704"/>
<path id="Vector_3" d="M9.52678 24.6472C9.32571 24.6472 9.12463 24.599 8.93772 24.4942C7.93801 23.942 7.03176 23.2397 6.24162 22.4127C5.77717 21.9256 5.79416 21.1524 6.28127 20.688C6.76838 20.2207 7.53271 20.5101 8 21C8.63819 21.6691 9.21836 22.0667 10 22.5C10.5891 22.8257 10.9258 23.4294 10.5973 24.0185C10.3736 24.4206 9.95725 24.6472 9.52678 24.6472ZM19.4162 24.5565C18.9943 24.5565 18.5836 24.3385 18.3571 23.9477C18.02 23.3643 18.4166 22.7554 19 22.4184C19.7278 21.9964 20.5327 21.4871 21 21C21.4673 20.5129 22.1641 20.3683 22.5003 20.6908C22.9874 21.1581 23.0044 21.9284 22.54 22.4184C21.8008 23.1943 20.9512 23.8599 20.0223 24.3951C19.8325 24.5056 19.623 24.5565 19.4162 24.5565Z" fill="#3F2704"/>
<path id="Vector_4" d="M14.0719 29C13.5749 29 13.1719 28.4534 13.1719 27.7794V19.8922C13.1719 19.2182 13.5749 18.6716 14.0719 18.6716C14.5689 18.6716 14.9719 19.2182 14.9719 19.8922V27.7794C14.9719 28.4534 14.5689 29 14.0719 29Z" fill="#3F2704"/>
</g>
<defs>
<clipPath id="clip0_37_9">
<rect width="29" height="29" fill="white"/>
</clipPath>
</defs>
</svg>
