<svg width="35" height="35" viewBox="0 0 35 35" fill="none" xmlns="http://www.w3.org/2000/svg">
<g id="&#232;&#156;&#156;&#232;&#156;&#130; 1">
<path id="Vector" opacity="0.5" d="M19.0625 18.6854C12.5366 17.1192 5.74135 20.1568 4.54198 24.5516C4.85267 25.7397 5.57626 26.9712 6.80228 28.1972C12.7055 34.1004 18.7354 28.3664 19.4207 20.8906C19.3565 20.1578 19.2389 19.4199 19.0625 18.6854Z" fill="white"/>
<path id="Vector_2" opacity="0.5" d="M17.8179 11.8665C18.3019 13.1216 18.723 14.4864 19.0696 15.9305C21.4656 16.5054 23.6493 17.2823 25.4612 18.2188C25.7493 17.6856 25.9565 17.1199 26.0822 16.5402C25.8262 15.3952 25.2534 14.3069 24.3623 13.4159C22.5918 11.6457 20.0434 11.1306 17.8179 11.8665Z" fill="white"/>
<path id="Vector_3" d="M11.8147 31.433C11.44 31.433 11.0641 31.3982 10.6898 31.3277C9.15171 31.0386 7.65464 30.1749 6.23994 28.7602C4.82525 27.3455 3.96153 25.8484 3.67237 24.3103C3.40337 22.8789 3.65254 21.4235 4.39253 20.1014C4.87241 19.2442 5.5437 18.4543 6.39204 17.7482C6.22969 17.4491 6.07588 17.1497 5.93062 16.8509C4.62051 14.1521 4.06714 11.5965 4.32998 9.45958C4.45884 8.41402 4.78218 7.46929 5.29146 6.65103C5.83252 5.78218 6.58413 5.05518 7.5251 4.49053C8.3919 3.97066 9.27407 3.66646 10.147 3.58682C10.9988 3.50889 11.8444 3.64356 12.6609 3.98604C15.6629 5.24625 18.2251 9.34713 19.7262 15.2725C25.652 16.7737 29.7528 19.3358 31.0127 22.3378C31.3555 23.1544 31.4898 24.0003 31.4119 24.8517C31.3323 25.7247 31.0281 26.6068 30.5082 27.4736C29.9436 28.4146 29.2166 29.1662 28.3477 29.7073C27.5298 30.2166 26.5847 30.5402 25.5392 30.6688C25.1929 30.7115 24.8357 30.7327 24.4687 30.7327C22.5703 30.7327 20.4095 30.1663 18.1478 29.0681C17.8491 28.9232 17.55 28.7691 17.2506 28.6067C16.5441 29.455 15.7545 30.1263 14.8973 30.6062C13.9222 31.1541 12.8732 31.433 11.8147 31.433ZM7.21201 19.1451C6.61319 19.6766 6.12749 20.261 5.78125 20.879C5.21763 21.8853 5.03443 22.9411 5.23643 24.0164C5.46509 25.2335 6.1815 26.451 7.36514 27.6346C8.54912 28.8186 9.76626 29.5347 10.9834 29.7633C12.0587 29.9653 13.1142 29.7821 14.1208 29.2185C14.7387 28.8723 15.3235 28.3869 15.8547 27.7878C14.1556 26.7159 12.5037 25.3989 11.0521 23.9473C9.60083 22.4961 8.28389 20.8441 7.21201 19.1451ZM18.1857 27.3031C18.4032 27.4185 18.6227 27.53 18.844 27.6377C21.266 28.8135 23.5144 29.3159 25.3457 29.0903C27.0209 28.8842 28.2988 28.0649 29.1444 26.6557C29.9186 25.3654 30.0502 24.1548 29.546 22.9544C28.5466 20.5734 25.0524 18.3928 20.093 17.0167C20.485 19.559 20.2628 22.2103 19.4432 24.6063C19.1086 25.5849 18.6872 26.4879 18.1857 27.3031ZM8.49409 18.1952C9.51333 19.829 10.7783 21.4228 12.1776 22.8225C13.577 24.2218 15.1708 25.4871 16.8049 26.506C17.2523 25.7855 17.6361 24.972 17.9376 24.0912C18.7463 21.7274 18.9076 19.0853 18.4024 16.5977C15.9148 16.0925 13.2728 16.2538 10.9089 17.0625C10.0281 17.3636 9.2146 17.7478 8.49409 18.1952ZM10.6119 5.15464C9.87495 5.15464 9.12437 5.38775 8.34439 5.85567C6.93516 6.70128 6.11587 7.97925 5.90977 9.6544C5.68418 11.4857 6.18662 13.7341 7.3624 16.1561C7.4687 16.3752 7.58047 16.5946 7.69702 16.8144C8.51221 16.3129 9.41524 15.8915 10.3938 15.5569C12.7898 14.7373 15.4408 14.5151 17.9834 14.9071C16.6073 9.948 14.4267 6.45381 12.0457 5.45406C11.5709 5.25445 11.0945 5.15464 10.6119 5.15464Z" fill="#3F2704"/>
<path id="Vector_4" d="M25.4606 19.0148C25.3375 19.0148 25.2124 18.9861 25.0955 18.9256C23.3459 18.0209 21.2558 17.2734 18.8837 16.704C18.741 16.6697 18.6105 16.5966 18.5068 16.4928C18.403 16.389 18.33 16.2585 18.2958 16.1157C17.7264 13.7437 16.9792 11.6539 16.0742 9.90391C15.8749 9.5187 16.0208 9.04463 16.4026 8.83853C17.7387 8.11665 19.3065 7.83398 20.8176 8.04316C22.3806 8.25952 23.7981 8.96465 24.9164 10.0833C26.0348 11.2021 26.7403 12.6191 26.9566 14.1822C27.1655 15.6933 26.8831 17.2611 26.1613 18.5972C26.0174 18.8631 25.7436 19.0148 25.4606 19.0148ZM19.7269 15.2732C21.7094 15.7756 23.5034 16.4028 25.0774 17.1428C25.4004 16.2743 25.5081 15.3241 25.3803 14.4006C25.2121 13.1838 24.6625 12.0801 23.7912 11.2089C22.92 10.3376 21.8163 9.78804 20.5995 9.61987C19.676 9.49204 18.7258 9.59971 17.8573 9.9227C18.5976 11.4967 19.2245 13.2908 19.7269 15.2732ZM23.7697 7.40503C23.5318 7.40503 23.2939 7.31445 23.1128 7.1333C22.9371 6.95762 22.8407 6.72451 22.8407 6.47637C22.8407 6.22822 22.9374 5.99478 23.1128 5.81943C23.2881 5.64409 23.5216 5.54736 23.7697 5.54736C24.0179 5.54736 24.2513 5.64409 24.427 5.81943C24.7889 6.1814 24.7893 6.771 24.427 7.1333L24.4266 7.13364C24.2455 7.31445 24.0076 7.40503 23.7697 7.40503ZM28.1796 11.8149C27.9417 11.8149 27.7038 11.7243 27.5226 11.5432C27.3473 11.3678 27.2506 11.1344 27.2506 10.8862C27.2506 10.6381 27.3473 10.4046 27.5226 10.2293C27.8849 9.86699 28.4742 9.86733 28.8365 10.2293C29.1988 10.5916 29.1988 11.1812 28.8365 11.5435C28.6554 11.7243 28.4175 11.8149 28.1796 11.8149Z" fill="#3F2704"/>
</g>
</svg>
