<svg width="162" height="32" viewBox="0 0 162 32" fill="none" xmlns="http://www.w3.org/2000/svg">
<g id="Group 10">
<path id="Vector" d="M20.3823 21.4848C20.3872 22.7009 20.1519 23.9058 19.69 25.0292C19.1853 26.2137 18.394 27.2516 17.3884 28.0479C16.113 29.0351 14.6527 29.752 13.0953 30.1555C10.9242 30.7256 8.68524 30.9895 6.44226 30.9396H1.4749C1.3246 30.9396 1.18025 30.8804 1.07272 30.7745C0.965192 30.6686 0.903032 30.5245 0.899509 30.373L0.000443337 0.599141C-0.00260217 0.521281 0.0100684 0.443609 0.0376758 0.370829C0.0652832 0.29805 0.107262 0.231654 0.161061 0.175715C0.214861 0.119775 0.279354 0.0754503 0.350653 0.045389C0.421953 0.0153277 0.498552 0.000175753 0.575831 0.000849832H10.1104C13.407 -0.0263451 15.7311 0.599145 17.0827 1.87731C18.4343 3.15547 19.1386 4.97752 19.1955 7.34348C19.2446 8.63851 18.9629 9.92454 18.3774 11.0782C17.94 11.9939 17.3552 12.8301 16.6466 13.553C16.5857 13.6163 16.5399 13.6929 16.5128 13.7768C16.4856 13.8607 16.4778 13.9498 16.4899 14.0372C16.5021 14.1246 16.5338 14.2081 16.5828 14.2813C16.6318 14.3544 16.6967 14.4154 16.7725 14.4595C17.3707 14.7842 17.9302 15.1765 18.4403 15.6288C19.1042 16.2386 19.6024 17.0094 19.8878 17.8679C20.2496 19.0377 20.4167 20.2599 20.3823 21.4848ZM6.57711 24.2542C6.57461 24.405 6.63046 24.5509 6.73285 24.6609C6.83523 24.7709 6.97608 24.8363 7.12553 24.8434C8.13908 24.8784 9.15318 24.7917 10.1464 24.585C11.1578 24.4014 12.1079 23.9669 12.911 23.3205C13.2571 23.0312 13.533 22.6661 13.7176 22.2529C13.9023 21.8396 13.9908 21.3894 13.9764 20.9364C13.9911 20.5221 13.9011 20.1109 13.7147 19.7414C13.5283 19.3719 13.2517 19.0562 12.911 18.8242C12.0836 18.2728 11.1458 17.9123 10.1644 17.7682C9.20896 17.6029 8.24295 17.5075 7.27388 17.4826C7.11965 17.4802 6.97071 17.5394 6.85955 17.6472C6.7484 17.755 6.68404 17.9028 6.6805 18.0583L6.57711 24.2542ZM12.956 7.93724C12.8783 7.36489 12.5933 6.84176 12.1558 6.46869C11.5024 5.95061 10.7288 5.60899 9.90814 5.47607C9.11799 5.32154 8.31666 5.23212 7.51212 5.20867C7.43618 5.20687 7.36067 5.22023 7.28988 5.24801C7.21909 5.27579 7.15446 5.31744 7.09971 5.37053C7.04496 5.42363 7.00118 5.48711 6.97089 5.55735C6.94061 5.62759 6.9244 5.70319 6.92323 5.77977L6.82885 11.7218C6.82698 11.8007 6.84106 11.8792 6.87028 11.9523C6.8995 12.0255 6.94323 12.0919 6.99877 12.1475C7.05431 12.2031 7.12049 12.2467 7.1933 12.2756C7.26611 12.3045 7.34403 12.3181 7.42224 12.3156C8.64158 12.2877 9.846 12.039 10.978 11.5813C11.6626 11.2795 12.2283 10.7569 12.5864 10.0956C12.9444 9.43441 13.0744 8.67199 12.956 7.92816V7.93724Z" fill="#442C22"/>
<path id="Vector_2" d="M38.3456 22.5182L41.1372 25.9584C41.2309 26.0728 41.278 26.2189 41.2688 26.3671C41.2596 26.5152 41.1949 26.6543 41.0878 26.7561C39.7958 27.9952 38.3086 29.0092 36.6868 29.7566C35.1367 30.4836 33.4514 30.8713 31.742 30.8942C30.2052 30.9152 28.6896 30.5308 27.3456 29.7793C25.9918 28.9779 24.8985 27.7968 24.1988 26.3799C23.3474 24.5925 22.9386 22.6235 23.0076 20.6418C22.9778 18.8532 23.3129 17.0775 23.992 15.4249C24.5986 13.9674 25.4794 12.6421 26.5858 11.5224C27.5985 10.4957 28.7902 9.66602 30.1012 9.07486C31.279 8.53375 32.556 8.24661 33.8503 8.23182C35.0798 8.20147 36.2926 8.52367 37.3477 9.16098C38.3193 9.76022 39.1359 10.5836 39.7302 11.5632C40.329 12.5458 40.7349 13.6352 40.9259 14.7722C41.1192 15.8915 41.0978 17.0377 40.863 18.1489C40.6596 19.1257 40.2333 20.0414 39.6178 20.8231C39.5686 20.8859 39.5066 20.9374 39.4361 20.9742C39.3655 21.0109 39.288 21.032 39.2087 21.0361L29.1302 21.7794C29.0533 21.7857 28.9785 21.8073 28.9099 21.8428C28.8414 21.8784 28.7805 21.9273 28.7308 21.9867C28.6811 22.0461 28.6435 22.1148 28.6202 22.1889C28.597 22.263 28.5885 22.3411 28.5952 22.4185C28.6449 23.166 28.9648 23.8692 29.4943 24.3947C30.1583 25.0241 31.0329 25.3785 31.9443 25.3873C33.027 25.4086 34.0958 25.1395 35.0416 24.6077C35.992 24.0941 36.8239 23.3836 37.4825 22.5228C37.5366 22.4614 37.6029 22.4122 37.677 22.3783C37.7512 22.3445 37.8316 22.3268 37.9131 22.3263C37.9945 22.3259 38.0751 22.3428 38.1496 22.3758C38.2241 22.4089 38.2909 22.4574 38.3456 22.5182ZM32.6455 13.1269C31.8649 13.1161 31.1044 13.377 30.4923 13.8657C29.8719 14.3482 29.3703 14.9687 29.0268 15.6787C28.8214 16.0764 28.6702 16.5003 28.5773 16.9387C28.5581 17.0278 28.5598 17.1201 28.5823 17.2084C28.6048 17.2966 28.6474 17.3784 28.7068 17.4471C28.7662 17.5158 28.8407 17.5695 28.9244 17.604C29.008 17.6385 29.0985 17.6528 29.1886 17.6458L34.8932 17.1608C34.9703 17.1541 35.0453 17.1318 35.1138 17.0953C35.1822 17.0589 35.2427 17.009 35.2917 16.9486C35.3407 16.8882 35.3773 16.8185 35.3992 16.7436C35.4211 16.6688 35.4278 16.5902 35.4192 16.5127C35.3754 16.1015 35.2957 15.695 35.1809 15.298C35.0153 14.7159 34.706 14.1857 34.2818 13.7569C34.0648 13.5468 33.8081 13.3828 33.527 13.2746C33.246 13.1664 32.9462 13.1161 32.6455 13.1269Z" fill="#442C22"/>
<path id="Vector_3" d="M59.4422 22.5182L62.2383 25.9584C62.3301 26.0737 62.3758 26.2194 62.3667 26.3669C62.3575 26.5144 62.2941 26.6532 62.1889 26.7561C60.8945 27.9943 59.4059 29.0081 57.7834 29.7566C56.2335 30.4843 54.5481 30.872 52.8386 30.8942C51.3017 30.9156 49.7861 30.5312 48.4422 29.7793C47.0884 28.9779 45.9951 27.7968 45.2954 26.3799C44.4404 24.5936 44.0299 22.624 44.0997 20.6418C44.07 18.8532 44.405 17.0775 45.0841 15.4249C45.6907 13.9674 46.5715 12.6421 47.678 11.5224C48.6916 10.4948 49.8849 9.66499 51.1978 9.07486C52.374 8.53335 53.6495 8.24618 54.9424 8.23182C56.1719 8.20147 57.3847 8.52367 58.4398 9.16098C59.4119 9.76115 60.2297 10.5842 60.8268 11.5632C61.4226 12.5468 61.8269 13.6359 62.018 14.7722C62.2135 15.8913 62.1922 17.038 61.9551 18.1489C61.7514 19.1248 61.3268 20.04 60.7144 20.8231C60.6643 20.886 60.6016 20.9376 60.5303 20.9743C60.459 21.011 60.3808 21.0321 60.3008 21.0361L50.2268 21.7794C50.1496 21.7851 50.0742 21.8063 50.0052 21.8416C49.9361 21.8769 49.8747 21.9257 49.8245 21.9852C49.7743 22.0447 49.7363 22.1136 49.7128 22.188C49.6892 22.2624 49.6806 22.3407 49.6874 22.4185C49.7353 23.1664 50.0555 23.8702 50.5864 24.3947C51.2487 25.0268 52.1244 25.3816 53.0364 25.3873C54.1191 25.4086 55.1879 25.1395 56.1337 24.6077C57.0822 24.0913 57.9135 23.3813 58.5746 22.5228C58.6283 22.46 58.6947 22.4095 58.7694 22.3748C58.844 22.3401 58.9252 22.3219 59.0074 22.3215C59.0896 22.321 59.171 22.3384 59.246 22.3723C59.321 22.4063 59.3879 22.456 59.4422 22.5182ZM53.7422 13.1269C52.9616 13.1169 52.2014 13.3777 51.5889 13.8657C50.9697 14.3495 50.4685 14.9696 50.1234 15.6787C49.9181 16.0764 49.7668 16.5003 49.6739 16.9387C49.6555 17.0281 49.658 17.1205 49.6811 17.2087C49.7042 17.2969 49.7473 17.3785 49.807 17.447C49.8667 17.5156 49.9414 17.5692 50.0252 17.6037C50.109 17.6382 50.1995 17.6526 50.2897 17.6458L55.9898 17.1608C56.0669 17.1534 56.1417 17.1308 56.2101 17.0942C56.2785 17.0577 56.339 17.0078 56.3883 16.9476C56.4376 16.8874 56.4746 16.818 56.4972 16.7434C56.5199 16.6688 56.5277 16.5904 56.5203 16.5127C56.4771 16.101 56.3958 15.6944 56.2775 15.298C56.1119 14.7159 55.8026 14.1857 55.3785 13.7569C55.1614 13.5468 54.9048 13.3828 54.6237 13.2746C54.3426 13.1664 54.0428 13.1161 53.7422 13.1269Z" fill="#442C22"/>
<path id="Vector_4" d="M95.8993 0.000851631H101.936C102.089 0.000851631 102.235 0.0619637 102.343 0.170764C102.451 0.279565 102.512 0.427128 102.512 0.580995V30.3549C102.512 30.4315 102.498 30.5074 102.469 30.5783C102.441 30.6492 102.398 30.7137 102.345 30.7681C102.291 30.8224 102.228 30.8656 102.158 30.895C102.088 30.9244 102.012 30.9396 101.936 30.9396H96.3847C96.3092 30.9402 96.2342 30.9258 96.1642 30.8972C96.0942 30.8686 96.0304 30.8263 95.9766 30.7729C95.9227 30.7194 95.8798 30.6558 95.8504 30.5856C95.8209 30.5155 95.8054 30.4402 95.8048 30.364L95.6161 18.1263C95.615 18.0481 95.5982 17.9709 95.5668 17.8995C95.5354 17.828 95.49 17.7637 95.4333 17.7103C95.3766 17.657 95.3098 17.6157 95.237 17.5891C95.1641 17.5624 95.0866 17.5509 95.0092 17.5552L86.8502 17.9631C86.7038 17.97 86.5656 18.0329 86.4637 18.139C86.3618 18.2452 86.3038 18.3865 86.3017 18.5342L86.1129 30.3775C86.1106 30.5298 86.0489 30.6751 85.9412 30.7819C85.8336 30.8888 85.6886 30.9487 85.5375 30.9486H79.788C79.6365 30.9475 79.4915 30.8866 79.384 30.779C79.2764 30.6715 79.2149 30.5258 79.2126 30.373L78.808 0.599143C78.8068 0.521813 78.8209 0.445003 78.8496 0.373266C78.8783 0.301528 78.9209 0.236313 78.9749 0.181415C79.0289 0.126517 79.0933 0.0830579 79.1642 0.0536071C79.2352 0.0241562 79.3112 0.0092841 79.3879 0.00989779H85.9601C86.0366 0.00926886 86.1124 0.0241591 86.1831 0.0536624C86.2538 0.0831657 86.3179 0.126702 86.3715 0.181664C86.4252 0.236627 86.4674 0.301909 86.4955 0.373625C86.5237 0.445342 86.5373 0.522031 86.5355 0.599143L86.3871 10.702C86.3858 10.7813 86.4006 10.8601 86.4307 10.9333C86.4607 11.0066 86.5053 11.0729 86.5618 11.1282C86.6182 11.1834 86.6853 11.2263 86.7589 11.2544C86.8324 11.2824 86.9109 11.295 86.9895 11.2913L94.9013 10.9241C95.0515 10.9182 95.1935 10.8533 95.2968 10.7432C95.4002 10.633 95.4567 10.4865 95.4542 10.3349L95.3014 0.599143C95.2988 0.519498 95.3126 0.440172 95.3418 0.366128C95.371 0.292085 95.4151 0.224906 95.4712 0.168773C95.5273 0.11264 95.5942 0.0687492 95.6679 0.039858C95.7415 0.0109668 95.8203 -0.00230197 95.8993 0.000851631Z" fill="#442C22"/>
<path id="Vector_5" d="M120.475 22.5182L123.271 25.9584C123.364 26.0733 123.41 26.2192 123.401 26.367C123.392 26.5148 123.328 26.6537 123.222 26.7561C121.928 27.9954 120.44 29.0094 118.816 29.7566C117.267 30.4847 115.581 30.8724 113.872 30.8943C112.335 30.9152 110.819 30.5308 109.475 29.7793C108.121 28.9779 107.028 27.7968 106.328 26.3799C105.534 24.8691 105.137 22.9564 105.137 20.6418C105.108 18.8537 105.442 17.0785 106.117 15.4249C106.725 13.967 107.607 12.6418 108.715 11.5224C109.727 10.495 110.919 9.66513 112.231 9.07488C113.409 8.53326 114.686 8.2461 115.98 8.23184C117.208 8.20085 118.42 8.52313 119.473 9.16099C120.445 9.76117 121.263 10.5842 121.86 11.5632C122.457 12.546 122.862 13.6355 123.051 14.7722C123.249 15.8911 123.227 17.0383 122.988 18.1489C122.789 19.1263 122.364 20.0425 121.747 20.8231C121.698 20.8855 121.636 20.9367 121.565 20.9734C121.495 21.0101 121.418 21.0315 121.338 21.0361L111.255 21.7794C111.178 21.7857 111.104 21.8073 111.035 21.8428C110.967 21.8784 110.906 21.9273 110.856 21.9867C110.806 22.0461 110.769 22.1148 110.745 22.189C110.722 22.2631 110.714 22.3411 110.72 22.4185C110.766 23.1671 111.086 23.8717 111.619 24.3947C112.282 25.0268 113.157 25.3816 114.069 25.3873C115.152 25.4086 116.221 25.1396 117.167 24.6077C118.115 24.0913 118.947 23.3813 119.608 22.5228C119.661 22.46 119.728 22.4095 119.802 22.3748C119.877 22.3401 119.958 22.3219 120.04 22.3215C120.123 22.3211 120.204 22.3384 120.279 22.3723C120.354 22.4063 120.421 22.456 120.475 22.5182ZM114.78 13.1269C113.998 13.1169 113.236 13.3777 112.622 13.8657C112.004 14.3508 111.503 14.9706 111.156 15.6787C110.955 16.078 110.804 16.5014 110.707 16.9388C110.689 17.0281 110.691 17.1205 110.714 17.2087C110.737 17.2969 110.78 17.3785 110.84 17.4471C110.9 17.5156 110.974 17.5692 111.058 17.6037C111.142 17.6382 111.233 17.6526 111.323 17.6458L117.023 17.1608C117.1 17.1535 117.175 17.1308 117.243 17.0943C117.312 17.0577 117.372 17.0079 117.421 16.9477C117.471 16.8875 117.508 16.8181 117.53 16.7434C117.553 16.6688 117.561 16.5904 117.553 16.5127C117.51 16.101 117.429 15.6944 117.311 15.298C117.147 14.7151 116.837 14.1843 116.411 13.7569C116.195 13.5474 115.939 13.3837 115.659 13.2755C115.379 13.1673 115.08 13.1168 114.78 13.1269Z" fill="#442C22"/>
<path id="Vector_6" d="M133.116 9.791C133.116 9.90715 133.151 10.0206 133.215 10.1168C133.28 10.2129 133.372 10.2873 133.479 10.3302C133.586 10.3732 133.703 10.3828 133.816 10.3578C133.928 10.3327 134.03 10.2742 134.11 10.1899C134.587 9.6596 135.159 9.22448 135.795 8.90716C137.056 8.28323 138.432 7.93155 139.836 7.87457C141.239 7.8176 142.639 8.0566 143.945 8.5763C144.076 8.63173 144.181 8.73351 144.241 8.86224C144.302 8.99096 144.313 9.13762 144.274 9.27429L142.242 16.3178C142.218 16.4015 142.175 16.4786 142.117 16.5433C142.059 16.608 141.988 16.6586 141.908 16.6914C141.828 16.7241 141.741 16.7381 141.655 16.7323C141.569 16.7264 141.485 16.7009 141.41 16.6577C140.243 15.9829 138.881 15.7347 137.553 15.9552C135.986 16.2188 134.587 17.0971 133.66 18.3982C133.578 18.5094 133.535 18.645 133.539 18.7835L133.988 30.3775C133.991 30.4556 133.979 30.5335 133.951 30.6065C133.924 30.6796 133.882 30.7462 133.828 30.8025C133.774 30.8588 133.71 30.9036 133.638 30.9341C133.567 30.9647 133.49 30.9804 133.413 30.9804H126.782C126.63 30.9804 126.483 30.9193 126.375 30.8105C126.267 30.7017 126.207 30.5541 126.207 30.4002V8.89812C126.206 8.82155 126.221 8.74561 126.249 8.6747C126.278 8.60379 126.32 8.53931 126.374 8.48495C126.427 8.4306 126.491 8.38744 126.561 8.358C126.631 8.32856 126.706 8.31341 126.782 8.31341H132.536C132.69 8.31341 132.838 8.37503 132.946 8.48468C133.055 8.59433 133.116 8.74305 133.116 8.89812V9.791Z" fill="#442C22"/>
<path id="Vector_7" d="M153.961 8.09586C155.523 8.06509 157.043 8.61343 158.231 9.63692C159.49 10.7485 160.448 12.1648 161.014 13.7524C161.692 15.5872 162.025 17.5329 161.998 19.4905C162.007 21.0109 161.767 22.5223 161.288 23.9641C160.846 25.3114 160.172 26.5696 159.297 27.6807C158.498 28.7053 157.511 29.5642 156.388 30.2098C155.331 30.8217 154.133 31.1422 152.913 31.139C151.313 31.1446 149.762 30.5758 148.539 29.5345C147.184 28.3899 146.128 26.9268 145.465 25.274C144.698 23.4447 144.313 21.4762 144.332 19.4905C144.322 17.9739 144.599 16.4692 145.15 15.0578C145.663 13.732 146.399 12.5054 147.326 11.4318C148.194 10.4242 149.245 9.5934 150.423 8.98424C151.516 8.40981 152.728 8.10533 153.961 8.09586ZM154.464 24.7664C155.363 24.573 156.02 23.8976 156.433 22.7403C156.856 21.4882 156.913 20.1402 156.6 18.856C156.431 17.9672 156.089 17.1213 155.593 16.3676C155.182 15.7244 154.631 15.1836 153.983 14.7858C153.447 14.4491 152.803 14.3354 152.185 14.4685C151.265 14.6619 150.595 15.3373 150.176 16.4946C149.777 17.7515 149.718 19.0928 150.005 20.3802C150.292 21.6677 150.914 22.8548 151.808 23.8191C152.644 24.6832 153.529 25.002 154.464 24.7754V24.7664Z" fill="#442C22"/>
</g>
</svg>
