<svg width="29" height="29" viewBox="0 0 29 29" fill="none" xmlns="http://www.w3.org/2000/svg">
<g id="&#232;&#138;&#177; (13) 2" clip-path="url(#clip0_264_803)">
<path id="Vector 9" opacity="0.5" d="M15.5 16.5C13 10.5001 17.0001 3.50001 21.4999 2.50001C23.9888 1.94688 22.2006 2.29938 23.0003 3.4997C23.9999 5 24.9999 7.99999 23.4999 11.5C21.9999 15 20.4999 15.5 17.4999 16.5C16.4393 16.8535 16.5 18 15.5 16.5Z" fill="#97E148"/>
<path id="Vector" d="M14.8455 18.4932H14.8257C10.1302 18.4252 6.36073 16.5023 4.48026 13.2171C2.62811 9.97442 2.9283 5.55928 5.29022 1.40186C5.51112 1.01671 5.93875 0.781648 6.36922 0.78448C9.70252 0.832624 12.5002 1.55848 14.5002 3.5C14.9845 3.97012 14.9732 4.51572 14.5002 5C14.378 5.12512 14.0002 5 13.5002 4.5C12.0002 3.5 10.5002 2.5 6.50023 2.5C3.98026 6 4.66917 10.1749 6.00023 12.5C7.44173 15.0177 10.6911 16.9462 14.5002 17C15.1743 17.0085 15.0087 16.826 15.0002 17.5C14.9946 18.1712 15.511 18.4932 14.8455 18.4932Z" fill="#3F2704"/>
<path id="Vector_2" d="M15.0634 18.4507C14.6839 18.4507 14.3243 18.2751 14.092 17.9692C11.2883 14.2791 10.5661 10.2576 12.0558 6.6496C13.5341 3.07275 17.0515 0.654191 21.7045 0.0141523C22.1435 -0.0538165 22.5768 0.133098 22.843 0.48427C25.6864 4.22538 26.468 8.41962 24.9897 11.9936C23.568 15.4289 20.011 17.7795 15.2277 18.4393C15.1767 18.445 15.1201 18.4507 15.0634 18.4507ZM13.5 7.49999C12.4266 10.0941 13 14 15.2277 16.7474C18.5 16 22.0522 14.5 23.5 11C24.5648 8.42568 24 4.99999 21.7045 1.7326C18 1.99999 14.7412 4.49999 13.5 7.49999Z" fill="#3F2704"/>
<path id="Vector_3" d="M9.52677 24.6472C9.32569 24.6472 9.12462 24.599 8.9377 24.4942C7.938 23.942 7.03175 23.2396 6.24161 22.4127C5.77716 21.9256 5.79415 21.1524 6.28126 20.688C6.76837 20.2207 7.5327 20.51 7.99998 21C8.63817 21.6691 9.21834 22.0667 9.99998 22.5C10.589 22.8257 10.9258 23.4294 10.5973 24.0184C10.3735 24.4206 9.95723 24.6472 9.52677 24.6472ZM19.4162 24.5565C18.9942 24.5565 18.5836 24.3385 18.357 23.9476C18.02 23.3642 18.4166 22.7554 19 22.4183C19.7278 21.9964 20.5327 21.4871 21 21C21.4673 20.5129 22.1641 20.3683 22.5003 20.6908C22.9874 21.1581 23.0044 21.9284 22.5399 22.4183C21.8008 23.1943 20.9512 23.8599 20.0223 24.3951C19.8325 24.5056 19.623 24.5565 19.4162 24.5565Z" fill="#3F2704"/>
<path id="Vector_4" d="M14.072 29C13.575 29 13.172 28.4534 13.172 27.7794V19.8922C13.172 19.2182 13.575 18.6716 14.072 18.6716C14.569 18.6716 14.972 19.2182 14.972 19.8922V27.7794C14.972 28.4534 14.569 29 14.072 29Z" fill="#3F2704"/>
</g>
<defs>
<clipPath id="clip0_264_803">
<rect width="29" height="29" fill="white"/>
</clipPath>
</defs>
</svg>
