<svg width="16" height="19" viewBox="0 0 16 19" fill="none" xmlns="http://www.w3.org/2000/svg">
<g id="&#229;&#155;&#190;&#229;&#177;&#130;_1" clip-path="url(#clip0_264_727)">
<path id="Vector" d="M10.2232 2.04591C10.155 2.0472 10.0879 2.02954 10.0292 1.99485L7.99002 0.837399L5.94747 2.00846C5.9041 2.0335 5.85624 2.04974 5.80659 2.05627C5.75695 2.06281 5.7065 2.05951 5.65813 2.04655C5.60977 2.03359 5.56443 2.01123 5.52471 1.98075C5.48498 1.95026 5.45165 1.91226 5.42662 1.8689C5.40158 1.82553 5.38533 1.77765 5.37879 1.728C5.37226 1.67836 5.37557 1.62793 5.38853 1.57957C5.40149 1.5312 5.42385 1.48585 5.45433 1.44613C5.48482 1.40641 5.52283 1.37307 5.56619 1.34804L7.78917 0.0646265C7.84717 0.0294721 7.91369 0.0108948 7.98151 0.0108948C8.04933 0.0108948 8.11585 0.0294721 8.17385 0.0646265L10.39 1.34804C10.4337 1.37274 10.4721 1.4059 10.5028 1.44559C10.5335 1.48528 10.5561 1.5307 10.5691 1.57919C10.5821 1.62768 10.5853 1.67826 10.5785 1.728C10.5717 1.77774 10.5551 1.82565 10.5296 1.8689C10.495 1.92814 10.4452 1.97704 10.3853 2.01056C10.3255 2.04408 10.2578 2.061 10.1892 2.05954" fill="#442C22" fill-opacity="0.7"/>
<path id="Vector_2" d="M7.9902 12.1327C7.88908 12.1327 7.7921 12.0926 7.7206 12.0211C7.64909 11.9496 7.60893 11.8526 7.60893 11.7514V9.18465C7.60389 9.13132 7.61005 9.07752 7.627 9.02671C7.64396 8.9759 7.67135 8.92919 7.7074 8.88958C7.74346 8.84996 7.78738 8.81832 7.83637 8.79666C7.88536 8.775 7.93834 8.76381 7.99191 8.76381C8.04547 8.76381 8.09845 8.775 8.14744 8.79666C8.19643 8.81832 8.24035 8.84996 8.27641 8.88958C8.31246 8.92919 8.33984 8.9759 8.3568 9.02671C8.37375 9.07752 8.37992 9.13132 8.37488 9.18465V11.7514C8.37399 11.8529 8.33306 11.9499 8.26101 12.0213C8.18897 12.0927 8.09164 12.1327 7.9902 12.1327Z" fill="#442C22" fill-opacity="0.7"/>
<path id="Vector_3" d="M0.381275 7.72762C0.280154 7.72762 0.183174 7.68746 0.111671 7.61596C0.0401677 7.54446 0 7.44747 0 7.34634V4.77954C0.00899892 4.6842 0.0532382 4.59564 0.124065 4.53119C0.194892 4.46673 0.287213 4.43102 0.382979 4.43102C0.478745 4.43102 0.571066 4.46673 0.641892 4.53119C0.712719 4.59564 0.756959 4.6842 0.765957 4.77954V7.34634C0.76506 7.44778 0.724139 7.54476 0.652094 7.61617C0.58005 7.68757 0.482712 7.72762 0.381275 7.72762Z" fill="#442C22" fill-opacity="0.7"/>
<path id="Vector_4" d="M15.6186 7.72762C15.5172 7.72762 15.4199 7.68757 15.3478 7.61617C15.2758 7.54476 15.2348 7.44778 15.2339 7.34634V4.77954C15.2429 4.6842 15.2872 4.59564 15.358 4.53119C15.4288 4.46673 15.5212 4.43102 15.6169 4.43102C15.7127 4.43102 15.805 4.46673 15.8758 4.53119C15.9467 4.59564 15.9909 4.6842 15.9999 4.77954V7.34634C15.9999 7.44747 15.9597 7.54446 15.8882 7.61596C15.8167 7.68746 15.7198 7.72762 15.6186 7.72762Z" fill="#442C22" fill-opacity="0.7"/>
<path id="Vector_5" d="M15.6186 13.971C15.5172 13.971 15.4199 13.931 15.3478 13.8596C15.2758 13.7882 15.2348 13.6912 15.2339 13.5898V11.0229C15.2339 10.9218 15.2741 10.8248 15.3456 10.7533C15.4171 10.6818 15.5141 10.6417 15.6152 10.6417C15.7163 10.6417 15.8133 10.6818 15.8848 10.7533C15.9563 10.8248 15.9965 10.9218 15.9965 11.0229V13.5898C15.9965 13.6909 15.9563 13.7878 15.8848 13.8594C15.8133 13.9309 15.7163 13.971 15.6152 13.971H15.6186Z" fill="#442C22" fill-opacity="0.7"/>
<path id="Vector_6" d="M0.381275 13.971C0.280154 13.971 0.183174 13.9309 0.111671 13.8594C0.0401677 13.7878 0 13.6909 0 13.5898V11.0229C0.00899892 10.9276 0.0532382 10.839 0.124065 10.7746C0.194892 10.7101 0.287213 10.6744 0.382979 10.6744C0.478745 10.6744 0.571066 10.7101 0.641892 10.7746C0.712719 10.839 0.756959 10.9276 0.765957 11.0229V13.5898C0.76506 13.6912 0.724139 13.7882 0.652094 13.8596C0.58005 13.931 0.482712 13.971 0.381275 13.971Z" fill="#442C22" fill-opacity="0.7"/>
<path id="Vector_7" d="M7.98987 3.56081C7.88875 3.56081 7.79177 3.52063 7.72027 3.44913C7.64876 3.37763 7.6086 3.28066 7.6086 3.17954V0.381229C7.6176 0.285886 7.66183 0.197347 7.73266 0.132891C7.80349 0.0684342 7.89581 0.0326996 7.99158 0.0326996C8.08734 0.0326996 8.17966 0.0684342 8.25049 0.132891C8.32132 0.197347 8.36556 0.285886 8.37455 0.381229V3.17954C8.37366 3.28097 8.33273 3.37793 8.26068 3.44934C8.18864 3.52075 8.09131 3.56082 7.98987 3.56081Z" fill="#442C22" fill-opacity="0.7"/>
<path id="Vector_8" d="M7.98987 18.3829C7.88844 18.382 7.79147 18.3411 7.72006 18.2691C7.64865 18.197 7.60859 18.0997 7.6086 17.9982V15.4314C7.6176 15.3361 7.66183 15.2475 7.73266 15.1831C7.80349 15.1186 7.89581 15.0829 7.99158 15.0829C8.08734 15.0829 8.17966 15.1186 8.25049 15.1831C8.32132 15.2475 8.36556 15.3361 8.37455 15.4314V17.9982C8.37367 18.1 8.33285 18.1973 8.2609 18.2693C8.18895 18.3412 8.09162 18.382 7.98987 18.3829Z" fill="#442C22" fill-opacity="0.7"/>
<path id="Vector_9" d="M7.98979 18.3829C7.92292 18.3825 7.85729 18.3649 7.79915 18.3319L5.56596 17.0383C5.47567 16.9873 5.40935 16.9025 5.38158 16.8025C5.35381 16.7026 5.36686 16.5958 5.41788 16.5055C5.46889 16.4152 5.55368 16.3489 5.65359 16.3211C5.7535 16.2933 5.86036 16.3064 5.95064 16.3574L7.9932 17.5387L10.0085 16.3744C10.0961 16.3239 10.2002 16.3102 10.2978 16.3364C10.3955 16.3625 10.4788 16.4264 10.5294 16.514C10.5799 16.6016 10.5936 16.7057 10.5674 16.8033C10.5413 16.901 10.4774 16.9843 10.3898 17.0349L8.18723 18.3115C8.12896 18.3475 8.06171 18.3664 7.9932 18.3659" fill="#442C22" fill-opacity="0.7"/>
<path id="Vector_10" d="M7.98966 9.56592C7.9228 9.56545 7.85717 9.54787 7.79903 9.51484L5.60668 8.23143C5.5164 8.18087 5.44989 8.09653 5.4218 7.99693C5.39371 7.89734 5.40634 7.79066 5.4569 7.70037C5.50746 7.61008 5.59181 7.5436 5.69141 7.51551C5.791 7.48742 5.89767 7.50002 5.98796 7.55058L8.03051 8.72505L10.056 7.55058C10.1463 7.49957 10.2532 7.48653 10.3531 7.5143C10.453 7.54207 10.5378 7.6084 10.5888 7.69869C10.6398 7.78897 10.6529 7.89581 10.6251 7.99573C10.5973 8.09564 10.531 8.18042 10.4407 8.23143L8.22456 9.51484C8.16535 9.54829 8.09851 9.56588 8.03051 9.56592" fill="#442C22" fill-opacity="0.7"/>
<path id="Vector_11" d="M13.3961 6.4442C13.3276 6.44566 13.2598 6.42876 13.2 6.39524C13.1401 6.36172 13.0903 6.3128 13.0557 6.25356C13.0302 6.21031 13.0136 6.16243 13.0068 6.11268C13.0001 6.06294 13.0033 6.01236 13.0162 5.96387C13.0292 5.91538 13.0518 5.86996 13.0825 5.83027C13.1132 5.79058 13.1516 5.75742 13.1953 5.73272L15.4149 4.44931C15.4582 4.42405 15.5062 4.40757 15.5559 4.40083C15.6056 4.39409 15.6562 4.39721 15.7047 4.41002C15.7532 4.42282 15.7988 4.44507 15.8387 4.47547C15.8786 4.50586 15.9122 4.54383 15.9374 4.58719C15.9627 4.63055 15.9791 4.67846 15.9859 4.72819C15.9926 4.77792 15.9895 4.8285 15.9767 4.87702C15.9639 4.92554 15.9417 4.97107 15.9113 5.011C15.8809 5.05093 15.8429 5.08447 15.7996 5.10973L13.58 6.39314C13.5214 6.42817 13.4541 6.44586 13.3859 6.4442" fill="#442C22" fill-opacity="0.7"/>
<path id="Vector_12" d="M15.6151 5.16081C15.5479 5.16299 15.4816 5.14521 15.4245 5.10974L13.2015 3.82635C13.1213 3.77157 13.0649 3.68852 13.0434 3.59385C13.0219 3.49917 13.037 3.39987 13.0857 3.31588C13.1344 3.23189 13.213 3.16942 13.3058 3.14097C13.3987 3.11253 13.4988 3.12022 13.5862 3.16252L15.8091 4.44932C15.8821 4.49142 15.9391 4.55649 15.9711 4.63438C16.0032 4.71228 16.0086 4.79861 15.9864 4.87988C15.9642 4.96114 15.9158 5.03278 15.8486 5.0836C15.7814 5.13443 15.6993 5.16158 15.6151 5.16081Z" fill="#442C22" fill-opacity="0.7"/>
<path id="Vector_13" d="M2.60427 6.4442C2.53708 6.44638 2.47074 6.42862 2.41364 6.39315L0.190657 5.10974C0.147293 5.0847 0.109282 5.05137 0.0787988 5.01165C0.048316 4.97192 0.0259558 4.9266 0.0129951 4.87823C3.44261e-05 4.82987 -0.0032739 4.77942 0.00326066 4.72977C0.00979521 4.68013 0.0260461 4.63226 0.0510811 4.5889C0.076116 4.54553 0.10945 4.50751 0.149174 4.47703C0.188898 4.44655 0.234234 4.42419 0.282599 4.41123C0.330965 4.39827 0.381414 4.39497 0.431057 4.4015C0.480701 4.40804 0.528568 4.42428 0.571932 4.44931L2.79491 5.73272C2.86761 5.77469 2.92443 5.83946 2.95655 5.917C2.98868 5.99455 2.99432 6.08054 2.97259 6.16162C2.95087 6.2427 2.903 6.31434 2.8364 6.36543C2.76981 6.41653 2.68821 6.44421 2.60427 6.4442Z" fill="#442C22" fill-opacity="0.7"/>
<path id="Vector_14" d="M0.381304 5.16082C0.297366 5.16083 0.215777 5.13313 0.149183 5.08203C0.0825892 5.03094 0.0347185 4.9593 0.0129943 4.87822C-0.00872983 4.79714 -0.00310085 4.71117 0.0290245 4.63362C0.0611499 4.55608 0.11797 4.49128 0.190666 4.44932L2.41024 3.16593C2.45382 3.1409 2.50193 3.12467 2.55178 3.11823C2.60163 3.11178 2.65225 3.11523 2.70077 3.12834C2.7493 3.14146 2.79476 3.164 2.83457 3.19469C2.87438 3.22538 2.90776 3.26361 2.93279 3.3072C2.95783 3.35079 2.97404 3.39887 2.98049 3.44872C2.98694 3.49857 2.9835 3.54922 2.97038 3.59774C2.95726 3.64626 2.93471 3.69172 2.90402 3.73153C2.87334 3.77134 2.83511 3.80471 2.79152 3.82975L0.571941 5.10975C0.514831 5.14522 0.448498 5.163 0.381304 5.16082Z" fill="#442C22" fill-opacity="0.7"/>
<path id="Vector_15" d="M13.3922 15.2544C13.3085 15.253 13.2277 15.2243 13.1618 15.1728C13.0959 15.1213 13.0486 15.0497 13.0271 14.9689C13.0055 14.8881 13.0109 14.8025 13.0424 14.725C13.0739 14.6475 13.1297 14.5824 13.2015 14.5395L15.4279 13.2561C15.5159 13.2056 15.6205 13.192 15.7184 13.2185C15.8164 13.245 15.8999 13.3094 15.9505 13.3974C16.001 13.4854 16.0145 13.59 15.9881 13.688C15.9616 13.786 15.8972 13.8694 15.8092 13.92L13.5828 15.2034C13.5248 15.2368 13.4591 15.2544 13.3922 15.2544Z" fill="#442C22" fill-opacity="0.7"/>
<path id="Vector_16" d="M15.6187 13.971C15.5518 13.971 15.4861 13.9534 15.4281 13.92L13.2051 12.6366C13.1171 12.586 13.0527 12.5025 13.0263 12.4046C12.9998 12.3066 13.0133 12.202 13.0638 12.114C13.1144 12.026 13.1979 11.9617 13.2959 11.9352C13.3939 11.9087 13.4984 11.9222 13.5864 11.9727L15.8094 13.2561C15.8812 13.299 15.937 13.3641 15.9685 13.4416C16 13.5191 16.0054 13.6047 15.9838 13.6855C15.9623 13.7663 15.915 13.8379 15.8491 13.8894C15.7832 13.941 15.7024 13.9696 15.6187 13.971Z" fill="#442C22" fill-opacity="0.7"/>
<path id="Vector_17" d="M2.60427 15.2578C2.53735 15.2578 2.4716 15.2402 2.41364 15.2068L0.190657 13.92C0.147292 13.8949 0.109283 13.8616 0.0787993 13.8219C0.0483154 13.7821 0.0259565 13.7368 0.0129956 13.6885C3.4785e-05 13.6401 -0.00327446 13.5896 0.00326116 13.54C0.00979678 13.4904 0.0260446 13.4425 0.0510816 13.3991C0.102357 13.3114 0.18599 13.2473 0.284012 13.2206C0.382035 13.1938 0.486632 13.2066 0.57534 13.2561L2.79491 14.5429C2.86671 14.5858 2.92259 14.6509 2.95407 14.7284C2.98555 14.8059 2.99092 14.8915 2.96937 14.9723C2.94782 15.0531 2.90053 15.1247 2.83465 15.1762C2.76877 15.2278 2.68789 15.2564 2.60427 15.2578Z" fill="#442C22" fill-opacity="0.7"/>
<path id="Vector_18" d="M0.381239 13.971C0.312651 13.9725 0.244921 13.9556 0.185064 13.9221C0.125207 13.8886 0.0754027 13.8396 0.0408133 13.7804C0.0153195 13.7371 -0.00129964 13.6892 -0.0080772 13.6395C-0.0148548 13.5898 -0.0116485 13.5392 0.00134558 13.4907C0.0143397 13.4422 0.0368643 13.3968 0.0676064 13.3571C0.0983485 13.3174 0.136687 13.2842 0.180389 13.2595L2.39656 11.9727C2.48394 11.9304 2.58407 11.9227 2.67689 11.9512C2.7697 11.9796 2.84834 12.0421 2.89701 12.1261C2.94568 12.2101 2.96079 12.3094 2.93932 12.404C2.91785 12.4987 2.86139 12.5818 2.78124 12.6365L0.565071 13.92C0.505866 13.9534 0.439025 13.971 0.371026 13.971" fill="#442C22" fill-opacity="0.7"/>
<g id="Group" opacity="0.2">
<g id="Clip path group">
<mask id="mask0_264_727" style="mask-type:luminance" maskUnits="userSpaceOnUse" x="0" y="0" width="9" height="5">
<g id="clip-path">
<path id="Vector_19" d="M8.2214 0.163376H0.163528V4.9974H8.2214V0.163376Z" fill="white"/>
</g>
</mask>
<g mask="url(#mask0_264_727)">
<g id="Group_2">
<path id="Vector_20" d="M0.38126 4.99747C0.343191 4.99756 0.305787 4.98752 0.272882 4.96838C0.239977 4.94924 0.212762 4.92169 0.19403 4.88855C0.165305 4.8383 0.15741 4.77879 0.172047 4.72278C0.186684 4.66678 0.22268 4.61875 0.272321 4.58897L7.89445 0.190662C7.94512 0.162227 8.00493 0.154868 8.06098 0.170154C8.11703 0.18544 8.16482 0.222163 8.19403 0.272381C8.20849 0.297098 8.21785 0.324461 8.22156 0.352854C8.22527 0.381247 8.22326 0.410087 8.21565 0.437691C8.20803 0.465295 8.19497 0.491098 8.17722 0.513572C8.15947 0.536045 8.13741 0.554741 8.11232 0.56855L0.500411 4.96684C0.467564 4.98678 0.429896 4.99736 0.391472 4.99747" fill="#442C22" fill-opacity="0.7"/>
</g>
</g>
</g>
</g>
<g id="Group_3" opacity="0.2">
<g id="Clip path group_2">
<mask id="mask1_264_727" style="mask-type:luminance" maskUnits="userSpaceOnUse" x="0" y="4" width="16" height="10">
<g id="clip-path-2">
<path id="Vector_21" d="M15.8333 4.56168H0.163528V13.8076H15.8333V4.56168Z" fill="white"/>
</g>
</mask>
<g mask="url(#mask1_264_727)">
<g id="Group_4">
<path id="Vector_22" d="M0.381293 13.8076C0.332692 13.8084 0.285226 13.7929 0.246444 13.7636C0.207662 13.7343 0.179794 13.6929 0.16727 13.6459C0.154745 13.5989 0.158283 13.5491 0.177326 13.5044C0.196369 13.4597 0.229816 13.4226 0.272354 13.3991L15.5098 4.58208C15.56 4.55381 15.6192 4.54654 15.6747 4.56185C15.7302 4.57716 15.7774 4.6138 15.806 4.66378C15.8204 4.6885 15.8298 4.71586 15.8335 4.74426C15.8372 4.77265 15.8352 4.80151 15.8276 4.82911C15.82 4.85672 15.8069 4.8825 15.7892 4.90497C15.7714 4.92745 15.7494 4.94614 15.7243 4.95995L0.500444 13.7736C0.467597 13.7935 0.429929 13.8041 0.391505 13.8042" fill="#442C22" fill-opacity="0.7"/>
</g>
</g>
</g>
</g>
<g id="Group_5" opacity="0.2">
<g id="Clip path group_3">
<mask id="mask2_264_727" style="mask-type:luminance" maskUnits="userSpaceOnUse" x="7" y="0" width="9" height="5">
<g id="clip-path-3">
<path id="Vector_23" d="M15.833 0.163376H7.78531V4.9974H15.833V0.163376Z" fill="white"/>
</g>
</mask>
<g mask="url(#mask2_264_727)">
<g id="Group_6">
<path id="Vector_24" d="M15.6153 4.99747C15.5781 4.99692 15.5416 4.98635 15.5098 4.96685L7.8945 0.568554C7.8697 0.554457 7.84796 0.535535 7.83056 0.512932C7.81315 0.490328 7.80043 0.464486 7.79314 0.436905C7.78584 0.409325 7.78413 0.38057 7.78809 0.352318C7.79205 0.324066 7.80161 0.296898 7.8162 0.272386C7.84476 0.222402 7.89194 0.185737 7.94743 0.170428C8.00293 0.15512 8.06222 0.162394 8.11237 0.190666L15.7243 4.58216C15.7495 4.5963 15.7716 4.61532 15.7894 4.6381C15.8072 4.66088 15.8203 4.68697 15.8279 4.71485C15.8355 4.74273 15.8375 4.77185 15.8337 4.8005C15.8299 4.82915 15.8205 4.85676 15.806 4.88174C15.787 4.91539 15.7592 4.94329 15.7257 4.96246C15.6921 4.98164 15.654 4.99138 15.6153 4.99068" fill="#442C22" fill-opacity="0.7"/>
</g>
</g>
</g>
</g>
<g id="Group_7" opacity="0.2">
<g id="Clip path group_4">
<mask id="mask3_264_727" style="mask-type:luminance" maskUnits="userSpaceOnUse" x="0" y="4" width="16" height="10">
<g id="clip-path-4">
<path id="Vector_25" d="M15.8333 4.56168H0.163528V13.8076H15.8333V4.56168Z" fill="white"/>
</g>
</mask>
<g mask="url(#mask3_264_727)">
<g id="Group_8">
<path id="Vector_26" d="M15.6189 13.8076C15.5805 13.8075 15.5428 13.7969 15.51 13.777L0.272512 4.96679C0.24771 4.95269 0.225973 4.93379 0.208568 4.91119C0.191163 4.88858 0.178449 4.86272 0.171157 4.83514C0.163866 4.80756 0.162148 4.7788 0.166108 4.75055C0.170069 4.7223 0.179626 4.69513 0.194221 4.67062C0.207731 4.64392 0.226594 4.62029 0.249635 4.6012C0.272677 4.58211 0.2994 4.56799 0.328145 4.55969C0.356889 4.55138 0.387041 4.54907 0.416711 4.55293C0.446381 4.55679 0.474937 4.56673 0.500602 4.58211L15.7381 13.3923C15.7806 13.4158 15.814 13.4529 15.8331 13.4976C15.8521 13.5423 15.8557 13.5922 15.8431 13.6391C15.8306 13.6861 15.8027 13.7275 15.764 13.7568C15.7252 13.7861 15.6777 13.8016 15.6291 13.8008" fill="#442C22" fill-opacity="0.7"/>
</g>
</g>
</g>
</g>
<g id="Group_9" opacity="0.2">
<g id="Clip path group_5">
<mask id="mask4_264_727" style="mask-type:luminance" maskUnits="userSpaceOnUse" x="0" y="13" width="9" height="6">
<g id="clip-path-5">
<path id="Vector_27" d="M8.2214 13.3719H0.163528V18.2195H8.2214V13.3719Z" fill="white"/>
</g>
</mask>
<g mask="url(#mask4_264_727)">
<g id="Group_10">
<path id="Vector_28" d="M7.98996 18.2161C7.95203 18.2156 7.91473 18.2063 7.88102 18.1889L0.258896 13.7634C0.208788 13.7345 0.172202 13.6869 0.157199 13.631C0.142196 13.5751 0.149999 13.5156 0.178891 13.4655C0.207783 13.4154 0.255395 13.3788 0.311257 13.3638C0.367119 13.3488 0.426654 13.3566 0.476763 13.3855L8.0989 17.811C8.12398 17.8248 8.14605 17.8435 8.1638 17.866C8.18154 17.8885 8.1946 17.9143 8.20222 17.9419C8.20983 17.9695 8.21184 17.9983 8.20813 18.0267C8.20441 18.0551 8.19505 18.0825 8.1806 18.1072C8.16131 18.1406 8.1335 18.1683 8.10001 18.1874C8.06651 18.2066 8.02853 18.2165 7.98996 18.2161Z" fill="#442C22" fill-opacity="0.7"/>
</g>
</g>
</g>
</g>
<g id="Group_11" opacity="0.2">
<g id="Clip path group_6">
<mask id="mask5_264_727" style="mask-type:luminance" maskUnits="userSpaceOnUse" x="7" y="13" width="9" height="6">
<g id="clip-path-6">
<path id="Vector_29" d="M15.833 13.3719H7.78531V18.2195H15.833V13.3719Z" fill="white"/>
</g>
</mask>
<g mask="url(#mask5_264_727)">
<g id="Group_12">
<path id="Vector_30" d="M7.98981 18.2161C7.95174 18.2162 7.91434 18.2062 7.88143 18.187C7.84853 18.1679 7.82131 18.1403 7.80258 18.1072C7.77402 18.0575 7.76623 17.9985 7.78089 17.943C7.79555 17.8876 7.83147 17.8402 7.88087 17.811L15.4962 13.3855C15.5463 13.3566 15.6058 13.3488 15.6617 13.3638C15.7176 13.3788 15.7652 13.4154 15.7941 13.4655C15.823 13.5156 15.8308 13.5751 15.8158 13.631C15.8008 13.6869 15.7642 13.7345 15.7141 13.7634L8.09875 18.1889C8.06503 18.2063 8.02774 18.2156 7.98981 18.2161Z" fill="#442C22" fill-opacity="0.7"/>
</g>
</g>
</g>
</g>
<g id="Group_13" opacity="0.2">
<g id="Clip path group_7">
<mask id="mask6_264_727" style="mask-type:luminance" maskUnits="userSpaceOnUse" x="0" y="4" width="1" height="10">
<g id="clip-path-7">
<path id="Vector_31" d="M0.599273 4.56168H0.163528V13.8076H0.599273V4.56168Z" fill="white"/>
</g>
</mask>
<g mask="url(#mask6_264_727)">
<g id="Group_14">
<path id="Vector_32" d="M0.381395 13.8076C0.323612 13.8076 0.268196 13.7847 0.227337 13.7438C0.186478 13.7029 0.163528 13.6475 0.163528 13.5898V4.77954C0.163528 4.72175 0.186478 4.66633 0.227337 4.62547C0.268196 4.58461 0.323612 4.56166 0.381395 4.56166C0.439179 4.56166 0.494594 4.58461 0.535453 4.62547C0.576312 4.66633 0.599273 4.72175 0.599273 4.77954V13.5898C0.599273 13.6475 0.576312 13.7029 0.535453 13.7438C0.494594 13.7847 0.439179 13.8076 0.381395 13.8076Z" fill="#442C22" fill-opacity="0.7"/>
</g>
</g>
</g>
</g>
<g id="Group_15" opacity="0.2">
<g id="Clip path group_8">
<mask id="mask7_264_727" style="mask-type:luminance" maskUnits="userSpaceOnUse" x="15" y="4" width="1" height="10">
<g id="clip-path-8">
<path id="Vector_33" d="M15.8335 4.56168H15.3978V13.8076H15.8335V4.56168Z" fill="white"/>
</g>
</mask>
<g mask="url(#mask7_264_727)">
<g id="Group_16">
<path id="Vector_34" d="M15.6185 13.8076C15.5607 13.8076 15.5053 13.7847 15.4644 13.7438C15.4235 13.7029 15.4006 13.6475 15.4006 13.5898V4.77955C15.4073 4.72602 15.4333 4.67677 15.4737 4.64106C15.5141 4.60536 15.5662 4.58565 15.6202 4.58565C15.6741 4.58565 15.7262 4.60536 15.7666 4.64106C15.8071 4.67677 15.833 4.72602 15.8397 4.77955V13.5898C15.8397 13.6475 15.8168 13.7029 15.7759 13.7438C15.7351 13.7847 15.6796 13.8076 15.6219 13.8076" fill="#442C22" fill-opacity="0.7"/>
</g>
</g>
</g>
</g>
<g id="Group_17" opacity="0.2">
<g id="Clip path group_9">
<mask id="mask8_264_727" style="mask-type:luminance" maskUnits="userSpaceOnUse" x="7" y="0" width="2" height="19">
<g id="clip-path-9">
<path id="Vector_35" d="M8.22105 0.163376H7.78531V18.1923H8.22105V0.163376Z" fill="white"/>
</g>
</mask>
<g mask="url(#mask8_264_727)">
<g id="Group_18">
<path id="Vector_36" d="M7.98971 18.1991C7.93193 18.1991 7.87651 18.1762 7.83565 18.1353C7.7948 18.0944 7.77183 18.039 7.77183 17.9812V0.381227C7.77092 0.352048 7.77589 0.322992 7.78643 0.295767C7.79697 0.268543 7.81287 0.243712 7.83319 0.222754C7.85351 0.201796 7.87784 0.185132 7.90473 0.173759C7.93162 0.162387 7.96052 0.156541 7.98971 0.156555C8.0475 0.156555 8.10291 0.179505 8.14377 0.220364C8.18463 0.261223 8.20759 0.316649 8.20759 0.374433V17.9676C8.20759 18.0254 8.18463 18.0808 8.14377 18.1217C8.10291 18.1625 8.0475 18.1855 7.98971 18.1855" fill="#442C22" fill-opacity="0.7"/>
</g>
</g>
</g>
</g>
</g>
<defs>
<clipPath id="clip0_264_727">
<rect width="16" height="18.383" fill="white"/>
</clipPath>
</defs>
</svg>
